<svg width="168" height="73" viewBox="0 0 168 73" fill="none" xmlns="http://www.w3.org/2000/svg">
<path d="M0.180466 32L4.84843 10.1641H10.7469L8.5789 20.3203L17.1727 10.1641H23.8914L14.5359 21.1211L19.9461 32H13.3445L8.34453 21.3555L6.05937 32H0.180466ZM32.3 32.3906C30.6594 32.3906 29.2075 32.0521 27.9445 31.375C26.6945 30.6979 25.7115 29.7344 24.9953 28.4844C24.2922 27.2214 23.9406 25.724 23.9406 23.9922C23.9406 22.4427 24.0904 20.9648 24.3898 19.5586C24.7023 18.1393 25.1646 16.8372 25.7766 15.6523C26.4016 14.4544 27.1763 13.4193 28.1008 12.5469C29.0383 11.6615 30.1255 10.9779 31.3625 10.4961C32.5995 10.0013 33.9927 9.75391 35.5422 9.75391C37.2349 9.75391 38.6997 10.099 39.9367 10.7891C41.1737 11.4661 42.1307 12.4492 42.8078 13.7383C43.4849 15.0273 43.8234 16.5833 43.8234 18.4062C43.8234 19.8906 43.6737 21.3229 43.3742 22.7031C43.0878 24.0703 42.645 25.3464 42.0461 26.5312C41.4471 27.7031 40.6919 28.7318 39.7805 29.6172C38.869 30.4896 37.7883 31.1732 36.5383 31.668C35.3013 32.1497 33.8885 32.3906 32.3 32.3906ZM32.7883 27.6055C33.4393 27.6055 34.0318 27.4427 34.5656 27.1172C35.0995 26.7786 35.5747 26.3164 35.9914 25.7305C36.4081 25.1315 36.7531 24.4479 37.0266 23.6797C37.313 22.8984 37.5279 22.0586 37.6711 21.1602C37.8273 20.2617 37.9055 19.3438 37.9055 18.4062C37.9055 17.6641 37.8143 17.0065 37.632 16.4336C37.4628 15.8477 37.1698 15.3919 36.7531 15.0664C36.3495 14.7279 35.8026 14.5586 35.1125 14.5586C34.3964 14.5586 33.7518 14.7604 33.1789 15.1641C32.619 15.5547 32.1307 16.082 31.7141 16.7461C31.2974 17.4102 30.9523 18.1523 30.6789 18.9727C30.4055 19.793 30.1971 20.6393 30.0539 21.5117C29.9237 22.3711 29.8586 23.1979 29.8586 23.9922C29.8586 25.1771 30.0995 26.0755 30.5812 26.6875C31.063 27.2995 31.7987 27.6055 32.7883 27.6055ZM53.3453 41.6094L55.3766 32.1562C53.5406 31.9349 51.9911 31.4141 50.7281 30.5938C49.4781 29.7734 48.5341 28.7253 47.8961 27.4492C47.2581 26.1602 46.9391 24.7279 46.9391 23.1523C46.9391 21.9935 47.0823 20.8216 47.3687 19.6367C47.6552 18.4388 48.1109 17.293 48.7359 16.1992C49.374 15.0924 50.2008 14.0964 51.2164 13.2109C52.245 12.3255 53.4885 11.6029 54.9469 11.043C56.4052 10.4701 58.1109 10.125 60.0641 10.0078L61.8219 1.60938H67.4273L65.6695 10.0469C68.3648 10.4245 70.4156 11.4271 71.8219 13.0547C73.2411 14.6823 73.9508 16.7201 73.9508 19.168C73.9508 20.2096 73.8336 21.2969 73.5992 22.4297C73.3648 23.5495 72.9677 24.6562 72.4078 25.75C71.8479 26.8307 71.0732 27.8333 70.0836 28.7578C69.094 29.6693 67.844 30.444 66.3336 31.082C64.8362 31.707 63.0263 32.1302 60.9039 32.3516L59.0289 41.6094H53.3453ZM56.2945 27.6055L59.107 14.5586C57.9221 14.6367 56.9325 14.9622 56.1383 15.5352C55.344 16.0951 54.7125 16.7917 54.2437 17.625C53.775 18.4453 53.4365 19.3047 53.2281 20.2031C53.0328 21.1016 52.9352 21.9284 52.9352 22.6836C52.9352 23.569 53.0589 24.3633 53.3062 25.0664C53.5667 25.7695 53.9443 26.3424 54.4391 26.7852C54.9339 27.2148 55.5523 27.4883 56.2945 27.6055ZM61.9 27.6055C62.8766 27.4753 63.7099 27.1953 64.4 26.7656C65.1031 26.3359 65.6825 25.8216 66.1383 25.2227C66.607 24.6107 66.9716 23.9596 67.232 23.2695C67.5055 22.5664 67.6943 21.8698 67.7984 21.1797C67.9156 20.4896 67.9742 19.8581 67.9742 19.2852C67.9742 18.4779 67.844 17.7487 67.5836 17.0977C67.3362 16.4466 66.9651 15.9062 66.4703 15.4766C65.9885 15.0469 65.3831 14.7669 64.6539 14.6367L61.9 27.6055ZM85.7188 32.3906C84.013 32.3906 82.5091 32.0846 81.207 31.4727C79.918 30.8477 78.9089 29.9102 78.1797 28.6602C77.4505 27.4102 77.0859 25.8411 77.0859 23.9531C77.0859 22.1302 77.3464 20.3724 77.8672 18.6797C78.388 16.974 79.1628 15.4505 80.1914 14.1094C81.2331 12.7682 82.5091 11.707 84.0195 10.9258C85.543 10.1445 87.3008 9.75391 89.293 9.75391C91.7409 9.75391 93.5703 10.3138 94.7812 11.4336C96.0052 12.5404 96.6172 13.9661 96.6172 15.7109C96.6172 16.8568 96.3568 17.8984 95.8359 18.8359C95.3281 19.7734 94.5534 20.5807 93.5117 21.2578C92.4701 21.9219 91.1615 22.4362 89.5859 22.8008C88.0104 23.1523 86.1615 23.3281 84.0391 23.3281H83.043C83.0299 23.4844 83.0169 23.6211 83.0039 23.7383C83.0039 23.8555 83.0039 23.9857 83.0039 24.1289C83.0039 25.3008 83.3424 26.2318 84.0195 26.9219C84.6966 27.612 85.6536 27.957 86.8906 27.957C88.0365 27.957 89.0781 27.8268 90.0156 27.5664C90.9531 27.306 92.0599 26.8763 93.3359 26.2773V30.7109C92.1901 31.2708 91.0247 31.694 89.8398 31.9805C88.6549 32.2539 87.2812 32.3906 85.7188 32.3906ZM83.6875 19.3633H84.5664C86.0768 19.3633 87.3008 19.2005 88.2383 18.875C89.1888 18.5495 89.8789 18.1198 90.3086 17.5859C90.7513 17.0521 90.9727 16.4727 90.9727 15.8477C90.9727 15.2227 90.7904 14.7604 90.4258 14.4609C90.0742 14.1484 89.5729 13.9922 88.9219 13.9922C88.1927 13.9922 87.4701 14.2201 86.7539 14.6758C86.0378 15.1315 85.4062 15.763 84.8594 16.5703C84.3125 17.3776 83.9219 18.3086 83.6875 19.3633ZM104.948 32.3906C103.698 32.3906 102.662 32.1367 101.842 31.6289C101.022 31.1211 100.41 30.3984 100.006 29.4609C99.6026 28.5104 99.4008 27.3971 99.4008 26.1211C99.4008 25.6393 99.4398 25.0208 99.518 24.2656C99.5961 23.5104 99.7133 22.7422 99.8695 21.9609L102.35 10.1641H108.229L105.553 22.918C105.462 23.3607 105.384 23.7773 105.319 24.168C105.267 24.5586 105.241 24.9167 105.241 25.2422C105.241 26.0625 105.416 26.668 105.768 27.0586C106.12 27.4492 106.647 27.6445 107.35 27.6445C108.248 27.6445 109.049 27.2669 109.752 26.5117C110.468 25.7435 111.093 24.7214 111.627 23.4453C112.161 22.1562 112.591 20.7435 112.916 19.207L114.83 10.1641H120.709L116.08 32H111.588L111.998 27.957H111.784C111.224 28.8164 110.605 29.5846 109.928 30.2617C109.264 30.9258 108.522 31.4466 107.702 31.8242C106.881 32.2018 105.963 32.3906 104.948 32.3906ZM111.998 7.76172C109.824 7.76172 108.151 7.46875 106.979 6.88281C105.82 6.28385 105.019 5.52214 104.577 4.59766C104.134 3.66016 103.912 2.6901 103.912 1.6875C103.912 1.51823 103.919 1.35547 103.932 1.19922C103.958 1.04297 103.984 0.89974 104.01 0.769531H109.205C109.192 0.977865 109.179 1.14714 109.166 1.27734C109.166 1.40755 109.166 1.54427 109.166 1.6875C109.166 2.63802 109.459 3.32812 110.045 3.75781C110.631 4.1875 111.445 4.40234 112.487 4.40234C113.685 4.40234 114.648 4.13542 115.377 3.60156C116.107 3.06771 116.634 2.1237 116.959 0.769531H122.272C121.92 2.17578 121.367 3.40625 120.612 4.46094C119.857 5.5026 118.789 6.31641 117.409 6.90234C116.041 7.47526 114.238 7.76172 111.998 7.76172ZM121.735 32L126.403 10.1641H132.341L130.524 18.5625H137.341L139.098 10.1641H144.977L140.329 32H134.45L136.325 22.9961H129.567L127.653 32H121.735ZM147.82 32.3906C147.26 32.3906 146.726 32.3516 146.218 32.2734C145.71 32.1953 145.261 32.0781 144.87 31.9219V27.0781C145.066 27.1562 145.293 27.2279 145.554 27.293C145.814 27.3581 146.088 27.3906 146.374 27.3906C146.739 27.3906 147.058 27.3255 147.331 27.1953C147.605 27.0521 147.846 26.8633 148.054 26.6289C148.262 26.3945 148.451 26.1341 148.62 25.8477C149.076 25.0924 149.486 24.474 149.851 23.9922C150.215 23.5104 150.593 23.1263 150.984 22.8398C151.374 22.5404 151.823 22.3125 152.331 22.1562C151.745 21.9089 151.218 21.5898 150.749 21.1992C150.293 20.8086 149.929 20.3138 149.655 19.7148C149.395 19.1159 149.265 18.3997 149.265 17.5664C149.265 16.2643 149.512 15.1445 150.007 14.207C150.502 13.2695 151.179 12.5078 152.038 11.9219C152.911 11.3229 153.913 10.8802 155.046 10.5938C156.192 10.3073 157.409 10.1641 158.698 10.1641H167.82L163.23 32H157.331L159.109 23.875H157.898C157.051 23.875 156.387 24.1484 155.905 24.6953C155.424 25.2292 154.988 25.9193 154.597 26.7656C154.219 27.599 153.751 28.4648 153.191 29.3633C152.826 29.9232 152.403 30.431 151.921 30.8867C151.439 31.3424 150.866 31.707 150.202 31.9805C149.538 32.2539 148.744 32.3906 147.82 32.3906ZM158.132 19.8711H159.948L161.101 14.3633H158.62C157.982 14.3633 157.409 14.487 156.902 14.7344C156.394 14.9688 155.99 15.3203 155.691 15.7891C155.404 16.2448 155.261 16.8112 155.261 17.4883C155.261 18.2044 155.489 18.7839 155.945 19.2266C156.413 19.6562 157.142 19.8711 158.132 19.8711Z" fill="#171717"/>
<path d="M43.6672 72.3906C40.3208 72.3906 37.7102 71.4466 35.8352 69.5586C33.9602 67.6576 33.0227 64.9492 33.0227 61.4336C33.0227 59.4154 33.257 57.4883 33.7258 55.6523C34.1945 53.8034 34.8781 52.1107 35.7766 50.5742C36.675 49.0378 37.7753 47.7031 39.0773 46.5703C40.3924 45.4375 41.8833 44.5651 43.55 43.9531C45.2297 43.3281 47.0721 43.0156 49.0773 43.0156C50.6659 43.0156 52.1047 43.1719 53.3937 43.4844C54.6958 43.7839 55.9654 44.2266 57.2023 44.8125L55.4445 48.7188C54.468 48.224 53.4458 47.8203 52.3781 47.5078C51.3104 47.1953 50.1581 47.0391 48.9211 47.0391C47.2023 47.0391 45.6594 47.4167 44.2922 48.1719C42.925 48.9141 41.7531 49.9362 40.7766 51.2383C39.813 52.5404 39.0773 54.0378 38.5695 55.7305C38.0617 57.4232 37.8078 59.2135 37.8078 61.1016C37.8078 62.5859 38.0422 63.875 38.5109 64.9688C38.9797 66.0625 39.7089 66.9089 40.6984 67.5078C41.688 68.0938 42.9445 68.3867 44.468 68.3867C45.3273 68.3867 46.1021 68.3281 46.7922 68.2109C47.4953 68.0807 48.1464 67.931 48.7453 67.7617L50.3469 60.4766H44.8L45.6594 56.5117H55.7375L52.6516 70.8672C51.4016 71.3099 50.0669 71.6745 48.6477 71.9609C47.2414 72.2474 45.5812 72.3906 43.6672 72.3906ZM67.4273 72.3906C65.7737 72.3906 64.3284 72.0781 63.0914 71.4531C61.8674 70.8151 60.9169 69.8841 60.2398 68.6602C59.5758 67.4232 59.2438 65.9128 59.2438 64.1289C59.2438 62.3581 59.4977 60.6328 60.0055 58.9531C60.5133 57.2604 61.262 55.737 62.2516 54.3828C63.2411 53.0286 64.4456 51.9544 65.8648 51.1602C67.2841 50.3659 68.8987 49.9688 70.7086 49.9688C72.9221 49.9688 74.5823 50.4701 75.6891 51.4727C76.8089 52.4622 77.3688 53.7773 77.3688 55.418C77.3688 56.5378 77.1148 57.5599 76.607 58.4844C76.0992 59.4089 75.3245 60.2096 74.2828 60.8867C73.2542 61.5508 71.9456 62.0651 70.357 62.4297C68.7815 62.7943 66.926 62.9766 64.7906 62.9766H63.9117C63.8987 63.1719 63.8857 63.3737 63.8727 63.582C63.8596 63.7773 63.8531 63.9727 63.8531 64.168C63.8531 65.6133 64.2307 66.7526 64.9859 67.5859C65.7411 68.4062 66.8414 68.8164 68.2867 68.8164C69.3805 68.8164 70.3896 68.6797 71.3141 68.4062C72.2385 68.1328 73.2737 67.7227 74.4195 67.1758V70.7891C73.3648 71.2969 72.2971 71.694 71.2164 71.9805C70.1357 72.2539 68.8727 72.3906 67.4273 72.3906ZM64.4781 59.6562H65.1422C66.7307 59.6562 68.1109 59.5065 69.2828 59.207C70.4547 58.8945 71.3596 58.4388 71.9977 57.8398C72.6357 57.2279 72.9547 56.4857 72.9547 55.6133C72.9547 54.9362 72.7398 54.4089 72.3102 54.0312C71.8935 53.6406 71.2685 53.4453 70.4352 53.4453C69.6148 53.4453 68.8076 53.6992 68.0133 54.207C67.219 54.7018 66.5094 55.418 65.8844 56.3555C65.2594 57.2799 64.7906 58.3802 64.4781 59.6562ZM88.1602 72.3906C86.5065 72.3906 85.0612 72.0781 83.8242 71.4531C82.6003 70.8151 81.6497 69.8841 80.9727 68.6602C80.3086 67.4232 79.9766 65.9128 79.9766 64.1289C79.9766 62.3581 80.2305 60.6328 80.7383 58.9531C81.2461 57.2604 81.9948 55.737 82.9844 54.3828C83.974 53.0286 85.1784 51.9544 86.5977 51.1602C88.0169 50.3659 89.6315 49.9688 91.4414 49.9688C93.6549 49.9688 95.3151 50.4701 96.4219 51.4727C97.5417 52.4622 98.1016 53.7773 98.1016 55.418C98.1016 56.5378 97.8477 57.5599 97.3398 58.4844C96.832 59.4089 96.0573 60.2096 95.0156 60.8867C93.987 61.5508 92.6784 62.0651 91.0898 62.4297C89.5143 62.7943 87.6589 62.9766 85.5234 62.9766H84.6445C84.6315 63.1719 84.6185 63.3737 84.6055 63.582C84.5924 63.7773 84.5859 63.9727 84.5859 64.168C84.5859 65.6133 84.9635 66.7526 85.7188 67.5859C86.474 68.4062 87.5742 68.8164 89.0195 68.8164C90.1133 68.8164 91.1224 68.6797 92.0469 68.4062C92.9714 68.1328 94.0065 67.7227 95.1523 67.1758V70.7891C94.0977 71.2969 93.0299 71.694 91.9492 71.9805C90.8685 72.2539 89.6055 72.3906 88.1602 72.3906ZM85.2109 59.6562H85.875C87.4635 59.6562 88.8438 59.5065 90.0156 59.207C91.1875 58.8945 92.0924 58.4388 92.7305 57.8398C93.3685 57.2279 93.6875 56.4857 93.6875 55.6133C93.6875 54.9362 93.4727 54.4089 93.043 54.0312C92.6263 53.6406 92.0013 53.4453 91.168 53.4453C90.3477 53.4453 89.5404 53.6992 88.7461 54.207C87.9518 54.7018 87.2422 55.418 86.6172 56.3555C85.9922 57.2799 85.5234 58.3802 85.2109 59.6562ZM99.7523 72L106.198 41.6094H110.768L107.995 54.5781C107.812 55.4766 107.617 56.3099 107.409 57.0781C107.213 57.8333 107.031 58.4909 106.862 59.0508C106.692 59.5977 106.562 60.0273 106.471 60.3398H106.588L116.295 50.3789H121.569L112.077 59.8906L117.741 72H112.663L108.561 62.8008L105.846 64.7734L104.342 72H99.7523ZM126.188 72.3906C124.834 72.3906 123.649 72.2734 122.634 72.0391C121.631 71.8177 120.726 71.4922 119.919 71.0625V67.1367C120.752 67.6315 121.69 68.0482 122.731 68.3867C123.786 68.7122 124.867 68.875 125.973 68.875C126.833 68.875 127.582 68.7578 128.22 68.5234C128.858 68.2891 129.352 67.957 129.704 67.5273C130.068 67.0846 130.251 66.5508 130.251 65.9258C130.251 65.4701 130.147 65.0664 129.938 64.7148C129.73 64.3633 129.372 64.0052 128.864 63.6406C128.356 63.276 127.653 62.8398 126.755 62.332C125.804 61.7982 124.997 61.2578 124.333 60.7109C123.682 60.151 123.18 59.5326 122.829 58.8555C122.49 58.1784 122.321 57.3841 122.321 56.4727C122.321 55.1055 122.634 53.9401 123.259 52.9766C123.897 52 124.795 51.2578 125.954 50.75C127.126 50.2292 128.506 49.9688 130.095 49.9688C131.371 49.9688 132.575 50.1185 133.708 50.418C134.841 50.7044 135.889 51.1081 136.852 51.6289L135.348 55.0273C134.632 54.6237 133.838 54.2786 132.966 53.9922C132.093 53.6927 131.156 53.543 130.153 53.543C129.229 53.543 128.454 53.7578 127.829 54.1875C127.217 54.6172 126.911 55.2292 126.911 56.0234C126.911 56.4401 127.009 56.8177 127.204 57.1562C127.412 57.4818 127.757 57.8138 128.239 58.1523C128.721 58.4909 129.378 58.8815 130.212 59.3242C131.11 59.819 131.911 60.3398 132.614 60.8867C133.317 61.4336 133.871 62.0651 134.274 62.7812C134.678 63.4844 134.88 64.3372 134.88 65.3398C134.88 66.8633 134.522 68.1523 133.805 69.207C133.102 70.2487 132.1 71.043 130.798 71.5898C129.496 72.1237 127.959 72.3906 126.188 72.3906Z" fill="#FFE074"/>
</svg>
